<?xml version="1.0" encoding="utf-8"?>
<!-- Generator: Adobe Illustrator 16.0.0, SVG Export Plug-In . SVG Version: 6.00 Build 0)  -->
<!DOCTYPE svg PUBLIC "-//W3C//DTD SVG 1.1//EN" "http://www.w3.org/Graphics/SVG/1.1/DTD/svg11.dtd">
<svg version="1.1" id="Layer_1" xmlns="http://www.w3.org/2000/svg" xmlns:xlink="http://www.w3.org/1999/xlink" x="0px" y="0px"
	 width="112px" height="112px" viewBox="0 0 112 112" enable-background="new 0 0 112 112" xml:space="preserve">
<g>
	<g>
		<g>
			<path fill="#E6E6E6" d="M46.209,48.37c-4.457,0.91-7.822,4.853-7.822,9.586v35.235c0,5.386,4.387,9.781,9.785,9.781h46.975
				c5.391,0,9.785-4.396,9.785-9.781V57.956c0-4.733-3.365-8.676-7.828-9.586H46.209z M75.992,78.429l1.52,10.563
				c0.08,0.573-0.086,1.132-0.463,1.563c-0.363,0.422-0.906,0.676-1.479,0.676h-7.822c-0.568,0-1.115-0.245-1.488-0.676
				c-0.373-0.421-0.533-0.989-0.457-1.558l1.514-10.563c-3.268-1.639-5.443-5.018-5.443-8.733c0-5.395,4.387-9.786,9.785-9.786
				c5.395,0,9.791,4.392,9.791,9.786C81.449,73.416,79.27,76.795,75.992,78.429z"/>
		</g>
	</g>
	<path fill="#E6E6E6" d="M32.508,9.028c-14.021,0-25.441,11.41-25.441,25.445v9.937h11.748v-9.937
		c0-7.562,6.145-13.702,13.693-13.702c7.566,0,13.711,6.141,13.711,13.702V49.48l11.738,0.923v-15.93
		C57.957,20.438,46.547,9.028,32.508,9.028z"/>
</g>
<rect fill="none" width="112" height="112"/>
</svg>
