<?xml version="1.0" encoding="utf-8"?>
<!-- Generator: Adobe Illustrator 16.0.0, SVG Export Plug-In . SVG Version: 6.00 Build 0)  -->
<!DOCTYPE svg PUBLIC "-//W3C//DTD SVG 1.1//EN" "http://www.w3.org/Graphics/SVG/1.1/DTD/svg11.dtd">
<svg version="1.1" id="Layer_1" xmlns="http://www.w3.org/2000/svg" xmlns:xlink="http://www.w3.org/1999/xlink" x="0px" y="0px"
	 width="112px" height="112px" viewBox="0 0 112 112" enable-background="new 0 0 112 112" xml:space="preserve">
<g>
	<g>
		<path fill="#E6E6E6" d="M84.096,47.575V32.228C84.096,16.736,71.491,4.132,56,4.132S27.905,16.736,27.905,32.228v15.348
			c-4.928,1.004-8.646,5.369-8.646,10.586v38.9c0.001,5.957,4.846,10.807,10.807,10.807h51.867c5.961,0,10.807-4.85,10.807-10.807
			v-38.9C92.74,52.942,89.022,48.579,84.096,47.575z M60.794,80.767l1.669,11.666c0.09,0.621-0.096,1.248-0.506,1.721
			c-0.411,0.471-1.007,0.748-1.635,0.748h-8.644c-0.627,0-1.225-0.273-1.635-0.744s-0.597-1.104-0.505-1.721l1.668-11.666
			c-3.614-1.807-6.012-5.537-6.012-9.643c0-5.955,4.844-10.807,10.805-10.807s10.806,4.852,10.806,10.807
			C66.806,75.233,64.407,78.964,60.794,80.767z M71.129,47.354H40.872V32.228c0-8.342,6.786-15.129,15.128-15.129
			s15.129,6.787,15.129,15.129V47.354z"/>
	</g>
</g>
<rect fill="none" width="112" height="112"/>
</svg>
